<svg xmlns="http://www.w3.org/2000/svg" viewBox="0 0 64 64">
  <defs>
    <linearGradient id="g1" x1="0" y1="0" x2="1" y2="1">
      <stop offset="0%" stop-color="#ff9a2f"/>
      <stop offset="100%" stop-color="#ff6f00"/>
    </linearGradient>
  </defs>

  <rect x="6" y="6" width="52" height="52" rx="14" fill="url(#g1)"/>
  
  <g fill="none" stroke="#ffffff" stroke-width="3.2" stroke-linecap="round" stroke-linejoin="round">
    <path d="M22 20.5h10c3.5 0 6 2 6 5.5v18c-1.4-1.7-3.4-2.5-6-2.5H22c-2.2 0-4 1.8-4 4V24.5c0-2.2 1.8-4 4-4z"/>
    <path d="M42 20.5H32c-3.5 0-6 2-6 5.5v18c1.4-1.7 3.4-2.5 6-2.5h10c2.2 0 4 1.8 4 4V24.5c0-2.2-1.8-4-4-4z"/>
  </g>
</svg>